<?xml version="1.0" encoding="UTF-8"?>
<svg xmlns="http://www.w3.org/2000/svg" version="1.1" viewBox="0 0 403.2 307.1">
  <defs>
    <style>
      .cls-1 {
        fill: #fff;
      }

      .cls-2 {
        fill: #3e3747;
      }

      .cls-3 {
        fill: #67616d;
      }
    </style>
  </defs>
  <!-- Generator: Adobe Illustrator 28.7.8, SVG Export Plug-In . SVG Version: 1.2.0 Build 200)  -->
  <g>
    <g id="Layer_1">
      <g>
        <path class="cls-2" d="M373.7,111.6c-.3,10.4-4.7,16.1-12.3,19.7-34.2,16-68.5,32-102.7,47.9-37,17.2-73.9,34.4-110.9,51.6-13.7,6.4-23.3,2.9-29.7-10.8-13.9-29.7-27.8-59.4-41.6-89.1-6-12.9-2.4-22.7,10.4-28.6C157.7,69.2,228.6,36.2,299.5,3.1c13.8-6.4,23.4-3,29.7,10.6,13.9,29.7,27.7,59.4,41.5,89.2,1.5,3.3,2.3,6.8,2.9,8.6ZM313.6,35.8c.2-8.8-6.2-11.9-13.7-8.4-64.2,29.9-128.5,59.9-192.7,89.9-1.2.6-2.5,1.1-3.5,1.9-3.2,2.4-4.2,5.6-2.9,9.3,1.4,3.9,4.5,5.8,8.6,5.2,1.9-.3,3.8-1.2,5.6-2,39.1-18.2,78.1-36.4,117.2-54.6,24.7-11.5,49.4-23.1,74.2-34.6,3.8-1.8,7.1-3.7,7.2-6.7Z"/>
        <path class="cls-3" d="M287.2,268.7c2.8,0,4.8,0,6.8,0,34.7,0,69.3,0,104,0,3.8,0,5.3.8,5.2,5-.3,9.5-.2,19,0,28.5,0,3.6-.8,5-4.7,5-43-.1-86,0-129-.1-12.6,0-20.2-7.7-20.3-20.3-.2-11.8-.1-23.7,0-35.5,0-3-.9-4.2-4-5-15-3.8-26.1-12.7-33.5-27,30.8-14.4,61.2-28.5,92-42.9,6.5,14.8,6.3,29.3-.9,43.1-3.1,5.9-8.3,10.7-12.3,16.2-1.4,2-2.9,4.4-3,6.7-.4,8.6-.1,17.2-.1,26.5Z"/>
        <path class="cls-3" d="M68.4,152.5c9.3,19.9,18.4,39.4,27.6,59.3-5.4,2.5-10.3,4.5-14.9,7.1-2.2,1.3-4.4,3.5-5.5,5.8-3.1,6.4-5.4,13.2-8.6,19.6-1.2,2.5-3.6,4.7-5.9,6.2-3.3,2.1-7.2,3.5-10.8,5.2-5.9,2.7-8.3,1.9-11.1-4-8.3-17.8-16.6-35.6-24.9-53.4-4.3-9.2-8.6-18.4-12.9-27.6-2.8-6.2-1.6-8,4.2-11.5,9.6-5.9,19.2-7.6,29.5-2.4,10,5.1,19.4,4.1,28.5-2.1,1.2-.8,2.7-1.3,4.7-2.2Z"/>
        <path class="cls-1" d="M313.6,35.8c-.1,3-3.5,5-7.2,6.7-24.7,11.5-49.5,23.1-74.2,34.6-39.1,18.2-78.1,36.4-117.2,54.6-1.8.8-3.7,1.7-5.6,2-4.2.6-7.2-1.3-8.6-5.2-1.3-3.7-.3-6.9,2.9-9.3,1-.8,2.3-1.3,3.5-1.9,64.2-30,128.5-59.9,192.7-89.9,7.5-3.5,13.9-.4,13.7,8.4Z"/>
      </g>
    </g>
  </g>
</svg>