<svg width="106" height="171" viewBox="0 0 106 171" fill="none" xmlns="http://www.w3.org/2000/svg">
  <g filter="url(#filter0_f)">
    <ellipse cx="53" cy="152.93" rx="22.58" ry="7.858" fill="#000" fill-opacity=".2"/>
  </g>
  <path d="M40.857 2c2.158 17.424-18.06 40.01-22.588 44.822C8.261 56.22 2 69.627 2 84.512c0 13.841 5.415 26.407 14.223 35.657h-.051l31.152 31.438a8.043 8.043 0 0011.46-.011l31.023-31.427h-.03C98.585 110.919 104 98.353 104 84.511c0-4.51-.575-8.886-1.655-13.055l.036-.016S97.524 50.2 81.333 24.057c0 10.745-2.7 19.09-6.998 26.352C69.605 35.131 60.059 16.727 40.857 2z" fill="#E25345"/>
  <path d="M1 84.511c0 13.996 5.432 26.715 14.286 36.122a.995.995 0 00.175.24l31.153 31.438a9.043 9.043 0 0012.881-.012l31.024-31.427c.055-.056.102-.117.142-.182C99.546 111.276 105 98.535 105 84.511c0-4.5-.562-8.87-1.619-13.042a1.032 1.032 0 00-.025-.252l-.038.009s0 0 0 0l.038-.01h-.001l-.001-.004-.003-.014-.011-.05-.046-.19a48.874 48.874 0 00-.186-.733 90.998 90.998 0 00-.78-2.795c-.715-2.421-1.835-5.917-3.464-10.23-3.257-8.628-8.546-20.534-16.68-33.67a1 1 0 00-1.85.527c0 9.595-2.189 17.219-5.747 23.869C69.59 32.955 59.96 15.392 41.466 1.206a1 1 0 00-1.601.917c1.033 8.34-3.303 18.08-8.639 26.481-5.285 8.324-11.402 15.105-13.664 17.51C7.372 55.694 1 69.353 1 84.511zM102.602 71.39h-.001l-.22.05.221-.05z" stroke="#fff" stroke-opacity=".5" stroke-width="2" stroke-linecap="round" stroke-linejoin="round"/>
  <path d="M78.907 121.645a36.31 36.31 0 0010.02-25.12C88.926 76.503 72.84 60.27 53 60.27c-19.842 0-35.926 16.232-35.926 36.256a36.31 36.31 0 0010.02 25.119h-.037l19.07 19.244a9.7 9.7 0 0013.817-.013l18.984-19.231h-.021z" fill="#FEBA57"/>
  <path d="M68.535 120.701a21.772 21.772 0 006.008-15.063c0-12.007-9.645-21.74-21.543-21.74s-21.543 9.734-21.543 21.74a21.772 21.772 0 006.008 15.063h-.022l11.435 11.54a5.816 5.816 0 008.286-.008l11.384-11.532h-.013z" fill="#fff" fill-opacity=".5"/>
  <defs>
    <filter id="filter0_f" x="20.42" y="135.072" width="65.161" height="35.717" filterUnits="userSpaceOnUse" color-interpolation-filters="sRGB">
      <feFlood flood-opacity="0" result="BackgroundImageFix"/>
      <feBlend in="SourceGraphic" in2="BackgroundImageFix" result="shape"/>
      <feGaussianBlur stdDeviation="5" result="effect1_foregroundBlur"/>
    </filter>
  </defs>
</svg>
