<svg width="104" height="165" viewBox="0 0 104 165" fill="none" xmlns="http://www.w3.org/2000/svg">
<g filter="url(#filter0_f_1938_10340)">
<ellipse cx="52" cy="150" rx="20" ry="5" fill="url(#paint0_radial_1938_10340)" fill-opacity="0.4"/>
</g>
<path d="M73.4178 44.7691C73.1855 43.9693 72.8752 42.9626 72.4768 41.7892C71.4226 38.6839 69.75 34.4044 67.2728 29.6973C62.3242 20.2941 54.127 9.11359 41.1664 2.23229C39.6243 1.41354 38.0485 2.80208 38.1964 4.29897C38.7684 10.0882 36.575 15.9097 33.1237 21.531C29.675 27.1482 25.0507 32.4398 20.9156 37.1683L20.8849 37.2034C18.2031 40.2701 15.7095 43.1216 13.9441 45.6282C5.89418 54.6447 1 66.5425 1 79.5811C1 94.217 7.1665 107.414 17.0403 116.714L45.6359 145.309C49.1506 148.824 54.8491 148.824 58.3638 145.309L86.9575 116.716C96.8326 107.416 103 94.2181 103 79.5811C103 76.0927 102.65 72.6851 101.982 69.3919L101.98 69.3797L101.968 69.3155C101.963 69.2911 101.958 69.2616 101.951 69.2273C101.943 69.1828 101.932 69.1301 101.921 69.0694C101.879 68.8543 101.816 68.5385 101.73 68.1315C101.559 67.3176 101.297 66.1389 100.935 64.6717C100.211 61.7379 99.0831 57.6465 97.4661 53.0088C94.2387 43.752 89.0352 32.2367 81.1436 23.4249C80.508 22.7152 79.5892 22.6294 78.8843 22.9439C78.1896 23.254 77.6454 23.9732 77.6823 24.8867C78.1117 35.5202 75.1339 41.9718 73.4178 44.7691Z" fill="#9E9E9E" stroke="url(#paint1_linear_1938_10340)" stroke-width="2" stroke-linejoin="round"/>
<path d="M75.9833 116.277C82.7654 109.893 87 100.834 87 90.7852C87 71.4552 71.33 55.7852 52 55.7852C32.67 55.7852 17 71.4552 17 90.7852C17 100.833 21.234 109.892 28.0152 116.275L46.3431 134.603C49.4673 137.727 54.5326 137.727 57.6568 134.603L75.9833 116.277Z" fill="black" fill-opacity="0.1"/>
<path d="M67.0753 114.992C71.3382 110.929 74 105.162 74 98.7656C74 86.4611 64.1503 76.4863 52 76.4863C39.8497 76.4863 30 86.4611 30 98.7656C30 105.162 32.6614 110.928 36.9239 114.991L46.3075 124.494C49.4397 127.666 54.5602 127.666 57.6924 124.494L67.0753 114.992Z" fill="black" fill-opacity="0.1"/>
<defs>
<filter id="filter0_f_1938_10340" x="22" y="135" width="60" height="30" filterUnits="userSpaceOnUse" color-interpolation-filters="sRGB">
<feFlood flood-opacity="0" result="BackgroundImageFix"/>
<feBlend mode="normal" in="SourceGraphic" in2="BackgroundImageFix" result="shape"/>
<feGaussianBlur stdDeviation="5" result="effect1_foregroundBlur_1938_10340"/>
</filter>
<radialGradient id="paint0_radial_1938_10340" cx="0" cy="0" r="1" gradientUnits="userSpaceOnUse" gradientTransform="translate(52 150) rotate(180) scale(24.5 38.7333)">
<stop/>
<stop offset="0.485421" stop-opacity="0.5"/>
</radialGradient>
<linearGradient id="paint1_linear_1938_10340" x1="52" y1="3" x2="52" y2="148.602" gradientUnits="userSpaceOnUse">
<stop stop-color="white" stop-opacity="0.8"/>
<stop offset="1" stop-color="white" stop-opacity="0"/>
</linearGradient>
</defs>
</svg>
